<?xml version="1.0" encoding="UTF-8" standalone="no" ?>
<!DOCTYPE svg PUBLIC "-//W3C//DTD SVG 1.1//EN" "http://www.w3.org/Graphics/SVG/1.1/DTD/svg11.dtd">
<svg xmlns="http://www.w3.org/2000/svg" xmlns:xlink="http://www.w3.org/1999/xlink" version="1.1" width="350" height="350" viewBox="0 0 350 350" xml:space="preserve">
<desc>Created with Fabric.js 1.7.22</desc>
<defs>
</defs>
<g id="icon" style="stroke: none; stroke-width: 1; stroke-dasharray: none; stroke-linecap: butt; stroke-linejoin: miter; stroke-miterlimit: 10; fill: none; fill-rule: nonzero; opacity: 1;" transform="translate(29.905555555555594 29.905555555555594) scale(3.19 3.19)" >
	<path d="M 24.158 48.723 h 54.898 c 2.293 0 4.313 -1.509 4.964 -3.709 l 5.841 -19.759 c 0.633 -2.141 -0.972 -4.289 -3.204 -4.289 H 16.95 L 24.158 48.723 z" style="stroke: none; stroke-width: 1; stroke-dasharray: none; stroke-linecap: butt; stroke-linejoin: miter; stroke-miterlimit: 10; fill: rgb(64,89,107); fill-rule: nonzero; opacity: 1;" transform=" matrix(1 0 0 1 0 0) " stroke-linecap="round" />
	<path d="M 79.585 61.526 H 27.091 c -0.687 0 -1.287 -0.464 -1.46 -1.129 L 14.404 17.161 c -0.421 -1.62 -1.883 -2.751 -3.557 -2.751 H 1.508 C 0.675 14.41 0 13.735 0 12.902 s 0.675 -1.508 1.508 -1.508 h 9.339 c 3.048 0 5.711 2.06 6.476 5.01 L 28.258 58.51 h 51.327 c 0.833 0 1.508 0.676 1.508 1.508 S 80.417 61.526 79.585 61.526 z" style="stroke: none; stroke-width: 1; stroke-dasharray: none; stroke-linecap: butt; stroke-linejoin: miter; stroke-miterlimit: 10; fill: rgb(64,89,107); fill-rule: nonzero; opacity: 1;" transform=" matrix(1 0 0 1 0 0) " stroke-linecap="round" />
	<circle cx="36.176" cy="72.066" r="6.536" style="stroke: none; stroke-width: 1; stroke-dasharray: none; stroke-linecap: butt; stroke-linejoin: miter; stroke-miterlimit: 10; fill: rgb(64,89,107); fill-rule: nonzero; opacity: 1;" transform="  matrix(1 0 0 1 0 0) "/>
	<circle cx="69.15599999999999" cy="72.066" r="6.536" style="stroke: none; stroke-width: 1; stroke-dasharray: none; stroke-linecap: butt; stroke-linejoin: miter; stroke-miterlimit: 10; fill: rgb(64,89,107); fill-rule: nonzero; opacity: 1;" transform="  matrix(1 0 0 1 0 0) "/>
</g>
</svg>